<svg xmlns="http://www.w3.org/2000/svg" viewBox="0 0 390 710" fill="none"><circle cx="242.1" cy="28.8" r="0.55" fill="#cbdfff" opacity="0.54" /><circle cx="84.0" cy="474.2" r="0.55" fill="#cbdfff" opacity="0.32" /><circle cx="232.4" cy="368.9" r="0.55" fill="#cbdfff" opacity="0.39" /><circle cx="269.8" cy="636.3" r="0.55" fill="#cbdfff" opacity="0.52" /><circle cx="225.0" cy="349.8" r="0.55" fill="#cbdfff" opacity="0.35" /><circle cx="170.8" cy="403.5" r="0.55" fill="#cbdfff" opacity="0.53" /><circle cx="88.7" cy="94.4" r="0.55" fill="#cbdfff" opacity="0.34" /><circle cx="67.0" cy="288.2" r="0.55" fill="#cbdfff" opacity="0.58" /><circle cx="272.8" cy="97.8" r="0.85" fill="#cbdfff" opacity="0.23" /><circle cx="202.8" cy="593.7" r="1.2" fill="#cbdfff" opacity="0.48" /><circle cx="293.2" cy="275.3" r="0.85" fill="#cbdfff" opacity="0.44" /><circle cx="374.6" cy="97.5" r="0.55" fill="#cbdfff" opacity="0.27" /><circle cx="244.8" cy="295.4" r="0.85" fill="#cbdfff" opacity="0.46" /><circle cx="238.0" cy="637.6" r="0.55" fill="#cbdfff" opacity="0.20" /><circle cx="327.5" cy="58.8" r="0.85" fill="#cbdfff" opacity="0.47" /><circle cx="295.2" cy="73.3" r="0.55" fill="#cbdfff" opacity="0.45" /><circle cx="170.3" cy="157.7" r="0.85" fill="#cbdfff" opacity="0.45" /><circle cx="127.0" cy="443.7" r="0.55" fill="#cbdfff" opacity="0.65" /><circle cx="192.8" cy="481.0" r="0.55" fill="#cbdfff" opacity="0.53" /><circle cx="212.7" cy="598.9" r="0.55" fill="#cbdfff" opacity="0.48" /><circle cx="134.5" cy="87.7" r="0.85" fill="#cbdfff" opacity="0.66" /><circle cx="336.2" cy="232.6" r="0.85" fill="#cbdfff" opacity="0.62" /><circle cx="324.6" cy="604.2" r="0.55" fill="#cbdfff" opacity="0.62" /><circle cx="235.6" cy="620.8" r="0.55" fill="#cbdfff" opacity="0.38" /><circle cx="295.7" cy="588.2" r="0.55" fill="#cbdfff" opacity="0.37" /><circle cx="187.4" cy="74.5" r="0.85" fill="#cbdfff" opacity="0.52" /><circle cx="137.2" cy="390.5" r="0.55" fill="#cbdfff" opacity="0.53" /><circle cx="303.9" cy="33.0" r="1.2" fill="#cbdfff" opacity="0.55" /><circle cx="49.8" cy="273.5" r="0.55" fill="#cbdfff" opacity="0.38" /><circle cx="341.2" cy="61.7" r="0.85" fill="#cbdfff" opacity="0.24" /><circle cx="236.8" cy="168.9" r="0.55" fill="#cbdfff" opacity="0.47" /><circle cx="42.8" cy="158.9" r="0.55" fill="#cbdfff" opacity="0.52" /><circle cx="75.3" cy="313.1" r="0.55" fill="#cbdfff" opacity="0.65" /><circle cx="277.0" cy="155.6" r="0.55" fill="#cbdfff" opacity="0.56" /><circle cx="102.5" cy="222.4" r="0.55" fill="#cbdfff" opacity="0.26" /><circle cx="42.5" cy="437.5" r="0.55" fill="#cbdfff" opacity="0.51" /><circle cx="94.6" cy="644.1" r="0.85" fill="#cbdfff" opacity="0.28" /><circle cx="294.7" cy="179.1" r="0.85" fill="#cbdfff" opacity="0.67" /><circle cx="348.8" cy="488.7" r="0.55" fill="#cbdfff" opacity="0.36" /><circle cx="38.7" cy="217.2" r="0.55" fill="#cbdfff" opacity="0.51" /><circle cx="49.1" cy="339.5" r="0.55" fill="#cbdfff" opacity="0.25" /><circle cx="377.5" cy="367.0" r="0.55" fill="#cbdfff" opacity="0.35" /><circle cx="214.6" cy="627.3" r="0.55" fill="#cbdfff" opacity="0.40" /><circle cx="135.8" cy="41.5" r="0.55" fill="#cbdfff" opacity="0.51" /><circle cx="41.2" cy="78.5" r="0.85" fill="#cbdfff" opacity="0.44" /><circle cx="292.7" cy="344.9" r="0.85" fill="#cbdfff" opacity="0.45" /><circle cx="13.9" cy="118.6" r="0.55" fill="#cbdfff" opacity="0.25" /><circle cx="137.4" cy="484.4" r="0.85" fill="#cbdfff" opacity="0.37" /><circle cx="346.3" cy="312.5" r="0.55" fill="#cbdfff" opacity="0.42" /><circle cx="88.4" cy="641.7" r="0.85" fill="#cbdfff" opacity="0.19" /><circle cx="360.0" cy="166.6" r="0.85" fill="#cbdfff" opacity="0.44" /><circle cx="210.8" cy="335.7" r="0.55" fill="#cbdfff" opacity="0.31" /><circle cx="297.8" cy="528.2" r="0.55" fill="#cbdfff" opacity="0.62" /><circle cx="355.0" cy="460.3" r="0.55" fill="#cbdfff" opacity="0.49" /><circle cx="305.5" cy="289.8" r="0.55" fill="#cbdfff" opacity="0.61" /><circle cx="335.3" cy="184.0" r="0.55" fill="#cbdfff" opacity="0.51" /><circle cx="44.2" cy="247.8" r="0.55" fill="#cbdfff" opacity="0.20" /><circle cx="288.2" cy="593.3" r="0.55" fill="#cbdfff" opacity="0.19" /><circle cx="49.0" cy="187.2" r="0.85" fill="#cbdfff" opacity="0.68" /><circle cx="329.7" cy="298.4" r="0.55" fill="#cbdfff" opacity="0.22" /><circle cx="126.4" cy="210.7" r="0.85" fill="#cbdfff" opacity="0.30" /><circle cx="267.2" cy="124.5" r="0.85" fill="#cbdfff" opacity="0.44" /><circle cx="178.0" cy="258.7" r="0.55" fill="#cbdfff" opacity="0.52" /><circle cx="206.7" cy="326.8" r="0.55" fill="#cbdfff" opacity="0.30" /><circle cx="275.2" cy="137.6" r="0.55" fill="#cbdfff" opacity="0.43" /><circle cx="333.4" cy="281.5" r="0.55" fill="#cbdfff" opacity="0.47" /><circle cx="77.6" cy="619.7" r="0.55" fill="#cbdfff" opacity="0.32" /><circle cx="100.0" cy="208.1" r="1.2" fill="#cbdfff" opacity="0.49" /><circle cx="313.0" cy="517.3" r="0.55" fill="#cbdfff" opacity="0.50" /><circle cx="197.8" cy="547.4" r="0.85" fill="#cbdfff" opacity="0.40" /><circle cx="234.8" cy="511.1" r="0.55" fill="#cbdfff" opacity="0.65" /><circle cx="311.1" cy="518.0" r="0.55" fill="#cbdfff" opacity="0.41" /><circle cx="126.8" cy="332.4" r="0.55" fill="#cbdfff" opacity="0.49" /><circle cx="218.2" cy="440.7" r="0.85" fill="#cbdfff" opacity="0.19" /><circle cx="305.4" cy="214.0" r="0.55" fill="#cbdfff" opacity="0.44" /><circle cx="119.0" cy="245.9" r="0.85" fill="#cbdfff" opacity="0.29" /><circle cx="36.8" cy="570.0" r="0.55" fill="#cbdfff" opacity="0.37" /><circle cx="50.4" cy="536.0" r="0.85" fill="#cbdfff" opacity="0.30" /><circle cx="114.5" cy="431.5" r="0.55" fill="#cbdfff" opacity="0.58" /><circle cx="340.5" cy="632.7" r="0.55" fill="#cbdfff" opacity="0.30" /><circle cx="18.3" cy="139.3" r="0.55" fill="#cbdfff" opacity="0.67" /><circle cx="134.1" cy="278.4" r="0.55" fill="#cbdfff" opacity="0.56" /><circle cx="226.0" cy="366.8" r="0.55" fill="#cbdfff" opacity="0.52" /><circle cx="54.0" cy="322.1" r="0.55" fill="#cbdfff" opacity="0.33" /><circle cx="181.6" cy="188.3" r="0.55" fill="#cbdfff" opacity="0.49" /><circle cx="179.1" cy="417.2" r="0.55" fill="#cbdfff" opacity="0.27" /><circle cx="42.4" cy="584.6" r="0.55" fill="#cbdfff" opacity="0.23" /><circle cx="147.4" cy="402.2" r="0.85" fill="#cbdfff" opacity="0.39" /><circle cx="278.5" cy="397.6" r="0.55" fill="#cbdfff" opacity="0.41" /><circle cx="61.3" cy="463.2" r="0.85" fill="#cbdfff" opacity="0.23" /><circle cx="121.1" cy="358.3" r="0.55" fill="#cbdfff" opacity="0.18" /><circle cx="332.6" cy="309.3" r="0.55" fill="#cbdfff" opacity="0.60" /><circle cx="168.6" cy="57.7" r="0.55" fill="#cbdfff" opacity="0.57" /><circle cx="63.8" cy="10.8" r="0.55" fill="#cbdfff" opacity="0.26" /><circle cx="14.9" cy="40.9" r="0.55" fill="#cbdfff" opacity="0.34" /><circle cx="375.9" cy="456.6" r="0.55" fill="#cbdfff" opacity="0.27" /><circle cx="265.8" cy="19.7" r="0.55" fill="#cbdfff" opacity="0.25" /><circle cx="163.9" cy="509.0" r="1.2" fill="#cbdfff" opacity="0.19" /><circle cx="180.1" cy="95.4" r="0.85" fill="#cbdfff" opacity="0.62" /><circle cx="38.9" cy="21.0" r="0.85" fill="#cbdfff" opacity="0.65" /><circle cx="105.2" cy="250.5" r="0.85" fill="#cbdfff" opacity="0.36" /><circle cx="102.9" cy="228.1" r="0.85" fill="#cbdfff" opacity="0.63" /><circle cx="227.6" cy="186.0" r="0.85" fill="#cbdfff" opacity="0.42" /><circle cx="84.5" cy="117.2" r="0.55" fill="#cbdfff" opacity="0.40" /><circle cx="167.8" cy="397.4" r="0.55" fill="#cbdfff" opacity="0.23" /><circle cx="208.6" cy="640.2" r="0.55" fill="#cbdfff" opacity="0.54" /><circle cx="311.8" cy="207.0" r="0.55" fill="#cbdfff" opacity="0.23" /><circle cx="117.6" cy="540.0" r="0.85" fill="#cbdfff" opacity="0.56" /><circle cx="378.6" cy="132.7" r="0.55" fill="#cbdfff" opacity="0.47" /><circle cx="302.5" cy="71.7" r="1.2" fill="#cbdfff" opacity="0.22" /><circle cx="96.7" cy="85.7" r="0.55" fill="#cbdfff" opacity="0.41" /><circle cx="33.0" cy="651.3" r="0.85" fill="#cbdfff" opacity="0.29" /><circle cx="144.1" cy="284.7" r="0.55" fill="#cbdfff" opacity="0.66" /><circle cx="160.1" cy="485.7" r="1.2" fill="#cbdfff" opacity="0.56" /><circle cx="44.6" cy="148.6" r="0.85" fill="#cbdfff" opacity="0.40" /><path d="M338.2 376.0Q359.7 376.0 376.8 382.8" stroke="#76b9ff" stroke-width=".8" stroke-linecap="round" opacity="0.46" /><circle cx="376.8" cy="382.8" r="1" fill="#76b9ff" opacity=".8" /><path d="M338.1 379.0Q359.6 382.6 376.5 392.3" stroke="#76b9ff" stroke-width=".8" stroke-linecap="round" opacity="0.69" /><circle cx="376.5" cy="392.3" r="1" fill="#76b9ff" opacity=".8" /><path d="M339.4 382.6Q362.4 390.5 380.5 404.5" stroke="#76b9ff" stroke-width=".8" stroke-linecap="round" opacity="0.37" /><circle cx="380.5" cy="404.5" r="1" fill="#76b9ff" opacity=".8" /><path d="M334.1 383.7Q350.9 392.7 364.2 405.9" stroke="#76b9ff" stroke-width=".8" stroke-linecap="round" opacity="0.51" /><circle cx="364.2" cy="405.9" r="1" fill="#76b9ff" opacity=".8" /><path d="M332.9 386.1Q348.3 398.0 360.4 413.6" stroke="#76b9ff" stroke-width=".8" stroke-linecap="round" opacity="0.34" /><circle cx="360.4" cy="413.6" r="1" fill="#76b9ff" opacity=".8" /><path d="M333.6 390.8Q349.8 408.3 362.5 429.7" stroke="#76b9ff" stroke-width=".8" stroke-linecap="round" opacity="0.37" /><circle cx="362.5" cy="429.7" r="1" fill="#76b9ff" opacity=".8" /><path d="M330.1 391.5Q342.1 409.8 351.5 431.2" stroke="#76b9ff" stroke-width=".8" stroke-linecap="round" opacity="0.73" /><circle cx="351.5" cy="431.2" r="1" fill="#76b9ff" opacity=".8" /><path d="M328.3 394.8Q338.1 417.2 345.8 442.6" stroke="#76b9ff" stroke-width=".8" stroke-linecap="round" opacity="0.65" /><circle cx="345.8" cy="442.6" r="1" fill="#76b9ff" opacity=".8" /><path d="M324.0 391.7Q328.7 410.4 332.5 431.3" stroke="#76b9ff" stroke-width=".8" stroke-linecap="round" opacity="0.54" /><circle cx="332.5" cy="431.3" r="1" fill="#76b9ff" opacity=".8" /><path d="M321.6 394.8Q323.4 417.1 324.9 441.7" stroke="#76b9ff" stroke-width=".8" stroke-linecap="round" opacity="0.46" /><circle cx="324.9" cy="441.7" r="1" fill="#76b9ff" opacity=".8" /><path d="M318.4 395.4Q316.5 418.3 315.0 443.8" stroke="#76b9ff" stroke-width=".8" stroke-linecap="round" opacity="0.70" /><circle cx="315.0" cy="443.8" r="1" fill="#76b9ff" opacity=".8" /><path d="M316.0 391.9Q311.2 410.8 307.4 431.9" stroke="#76b9ff" stroke-width=".8" stroke-linecap="round" opacity="0.38" /><circle cx="307.4" cy="431.9" r="1" fill="#76b9ff" opacity=".8" /><path d="M311.7 394.9Q301.8 417.4 294.1 442.9" stroke="#76b9ff" stroke-width=".8" stroke-linecap="round" opacity="0.74" /><circle cx="294.1" cy="442.9" r="1" fill="#76b9ff" opacity=".8" /><path d="M308.2 394.0Q294.2 415.5 283.2 440.4" stroke="#76b9ff" stroke-width=".8" stroke-linecap="round" opacity="0.57" /><circle cx="283.2" cy="440.4" r="1" fill="#76b9ff" opacity=".8" /><path d="M306.7 390.5Q290.8 407.7 278.4 428.6" stroke="#76b9ff" stroke-width=".8" stroke-linecap="round" opacity="0.70" /><circle cx="278.4" cy="428.6" r="1" fill="#76b9ff" opacity=".8" /><path d="M307.3 385.9Q292.2 397.7 280.2 413.0" stroke="#76b9ff" stroke-width=".8" stroke-linecap="round" opacity="0.73" /><circle cx="280.2" cy="413.0" r="1" fill="#76b9ff" opacity=".8" /><path d="M302.7 385.4Q282.1 396.5 265.8 412.7" stroke="#76b9ff" stroke-width=".8" stroke-linecap="round" opacity="0.39" /><circle cx="265.8" cy="412.7" r="1" fill="#76b9ff" opacity=".8" /><path d="M304.7 381.2Q286.6 387.5 272.3 398.4" stroke="#76b9ff" stroke-width=".8" stroke-linecap="round" opacity="0.48" /><circle cx="272.3" cy="398.4" r="1" fill="#76b9ff" opacity=".8" /><path d="M299.7 379.4Q275.7 383.4 256.7 394.3" stroke="#76b9ff" stroke-width=".8" stroke-linecap="round" opacity="0.42" /><circle cx="256.7" cy="394.3" r="1" fill="#76b9ff" opacity=".8" /><path d="M299.7 376.0Q275.5 376.0 256.5 383.6" stroke="#76b9ff" stroke-width=".8" stroke-linecap="round" opacity="0.68" /><circle cx="256.5" cy="383.6" r="1" fill="#76b9ff" opacity=".8" /><path d="M300.7 372.8Q277.9 369.0 259.8 373.3" stroke="#76b9ff" stroke-width=".8" stroke-linecap="round" opacity="0.38" /><circle cx="259.8" cy="373.3" r="1" fill="#76b9ff" opacity=".8" /><path d="M303.0 370.2Q282.8 363.2 266.8 364.5" stroke="#76b9ff" stroke-width=".8" stroke-linecap="round" opacity="0.63" /><circle cx="266.8" cy="364.5" r="1" fill="#76b9ff" opacity=".8" /><path d="M302.2 366.4Q281.0 354.9 264.3 353.5" stroke="#76b9ff" stroke-width=".8" stroke-linecap="round" opacity="0.57" /><circle cx="264.3" cy="353.5" r="1" fill="#76b9ff" opacity=".8" /><path d="M307.2 366.0Q292.0 354.2 280.0 350.9" stroke="#76b9ff" stroke-width=".8" stroke-linecap="round" opacity="0.60" /><circle cx="280.0" cy="350.9" r="1" fill="#76b9ff" opacity=".8" /><path d="M308.4 363.4Q294.7 348.5 283.9 343.2" stroke="#76b9ff" stroke-width=".8" stroke-linecap="round" opacity="0.70" /><circle cx="283.9" cy="343.2" r="1" fill="#76b9ff" opacity=".8" /><path d="M310.1 360.8Q298.3 342.8 289.0 335.4" stroke="#76b9ff" stroke-width=".8" stroke-linecap="round" opacity="0.47" /><circle cx="289.0" cy="335.4" r="1" fill="#76b9ff" opacity=".8" /><path d="M313.3 360.8Q305.4 342.7 299.1 334.7" stroke="#76b9ff" stroke-width=".8" stroke-linecap="round" opacity="0.46" /><circle cx="299.1" cy="334.7" r="1" fill="#76b9ff" opacity=".8" /><path d="M315.8 359.4Q310.8 339.7 306.9 330.6" stroke="#76b9ff" stroke-width=".8" stroke-linecap="round" opacity="0.62" /><circle cx="306.9" cy="330.6" r="1" fill="#76b9ff" opacity=".8" /><path d="M318.5 358.5Q316.8 337.7 315.5 327.8" stroke="#76b9ff" stroke-width=".8" stroke-linecap="round" opacity="0.37" /><circle cx="315.5" cy="327.8" r="1" fill="#76b9ff" opacity=".8" /><path d="M321.7 355.8Q323.7 331.9 325.2 320.6" stroke="#76b9ff" stroke-width=".8" stroke-linecap="round" opacity="0.51" /><circle cx="325.2" cy="320.6" r="1" fill="#76b9ff" opacity=".8" /><path d="M324.1 359.7Q329.1 340.3 332.9 331.3" stroke="#76b9ff" stroke-width=".8" stroke-linecap="round" opacity="0.63" /><circle cx="332.9" cy="331.3" r="1" fill="#76b9ff" opacity=".8" /><path d="M328.5 356.7Q338.5 333.8 346.5 323.6" stroke="#76b9ff" stroke-width=".8" stroke-linecap="round" opacity="0.40" /><circle cx="346.5" cy="323.6" r="1" fill="#76b9ff" opacity=".8" /><path d="M329.2 361.9Q340.1 345.2 348.7 338.3" stroke="#76b9ff" stroke-width=".8" stroke-linecap="round" opacity="0.65" /><circle cx="348.7" cy="338.3" r="1" fill="#76b9ff" opacity=".8" /><path d="M333.8 361.0Q350.1 343.3 363.0 336.9" stroke="#76b9ff" stroke-width=".8" stroke-linecap="round" opacity="0.58" /><circle cx="363.0" cy="336.9" r="1" fill="#76b9ff" opacity=".8" /><path d="M334.2 365.0Q351.0 351.9 364.2 348.3" stroke="#76b9ff" stroke-width=".8" stroke-linecap="round" opacity="0.45" /><circle cx="364.2" cy="348.3" r="1" fill="#76b9ff" opacity=".8" /><path d="M334.0 368.4Q350.6 359.5 363.7 358.3" stroke="#76b9ff" stroke-width=".8" stroke-linecap="round" opacity="0.74" /><circle cx="363.7" cy="358.3" r="1" fill="#76b9ff" opacity=".8" /><path d="M338.1 369.8Q359.6 362.4 376.6 363.7" stroke="#76b9ff" stroke-width=".8" stroke-linecap="round" opacity="0.35" /><circle cx="376.6" cy="363.7" r="1" fill="#76b9ff" opacity=".8" /><path d="M341.7 372.4Q367.5 368.1 387.8 372.9" stroke="#76b9ff" stroke-width=".8" stroke-linecap="round" opacity="0.45" /><circle cx="387.8" cy="372.9" r="1" fill="#76b9ff" opacity=".8" /><path d="M309 520Q317 474 320 398" stroke="#76b9ff" stroke-dasharray="1 5" opacity=".22" /><g transform="translate(12 124) scale(.82)"><path d="M126.0 434.0Q152.1 434.0 172.8 442.3" stroke="#ffb25d" stroke-width=".8" stroke-linecap="round" opacity="0.75" /><circle cx="172.8" cy="442.3" r="1" fill="#ffb25d" opacity=".8" /><path d="M127.4 437.5Q155.2 441.7 177.1 453.9" stroke="#ffb25d" stroke-width=".8" stroke-linecap="round" opacity="0.41" /><circle cx="177.1" cy="453.9" r="1" fill="#ffb25d" opacity=".8" /><path d="M128.6 441.6Q157.9 450.6 181.0 467.4" stroke="#ffb25d" stroke-width=".8" stroke-linecap="round" opacity="0.52" /><circle cx="181.0" cy="467.4" r="1" fill="#ffb25d" opacity=".8" /><path d="M125.9 444.6Q152.0 457.1 172.5 476.1" stroke="#ffb25d" stroke-width=".8" stroke-linecap="round" opacity="0.39" /><circle cx="172.5" cy="476.1" r="1" fill="#ffb25d" opacity=".8" /><path d="M125.2 448.5Q150.4 465.6 170.3 488.8" stroke="#ffb25d" stroke-width=".8" stroke-linecap="round" opacity="0.67" /><circle cx="170.3" cy="488.8" r="1" fill="#ffb25d" opacity=".8" /><path d="M121.3 450.1Q141.9 469.2 158.1 493.1" stroke="#ffb25d" stroke-width=".8" stroke-linecap="round" opacity="0.68" /><circle cx="158.1" cy="493.1" r="1" fill="#ffb25d" opacity=".8" /><path d="M119.3 453.2Q137.5 476.1 151.9 503.3" stroke="#ffb25d" stroke-width=".8" stroke-linecap="round" opacity="0.53" /><circle cx="151.9" cy="503.3" r="1" fill="#ffb25d" opacity=".8" /><path d="M114.6 452.3Q127.1 474.1 137.1 499.2" stroke="#ffb25d" stroke-width=".8" stroke-linecap="round" opacity="0.37" /><circle cx="137.1" cy="499.2" r="1" fill="#ffb25d" opacity=".8" /><path d="M111.1 452.0Q119.5 473.5 126.1 497.7" stroke="#ffb25d" stroke-width=".8" stroke-linecap="round" opacity="0.61" /><circle cx="126.1" cy="497.7" r="1" fill="#ffb25d" opacity=".8" /><path d="M109.2 456.6Q115.3 483.4 120.1 513.3" stroke="#ffb25d" stroke-width=".8" stroke-linecap="round" opacity="0.55" /><circle cx="120.1" cy="513.3" r="1" fill="#ffb25d" opacity=".8" /><path d="M105.9 459.3Q108.1 489.3 109.9 522.6" stroke="#ffb25d" stroke-width=".8" stroke-linecap="round" opacity="0.74" /><circle cx="109.9" cy="522.6" r="1" fill="#ffb25d" opacity=".8" /><path d="M102.5 454.7Q100.6 479.2 99.2 506.3" stroke="#ffb25d" stroke-width=".8" stroke-linecap="round" opacity="0.45" /><circle cx="99.2" cy="506.3" r="1" fill="#ffb25d" opacity=".8" /><path d="M99.2 455.1Q93.5 480.2 88.9 508.1" stroke="#ffb25d" stroke-width=".8" stroke-linecap="round" opacity="0.61" /><circle cx="88.9" cy="508.1" r="1" fill="#ffb25d" opacity=".8" /><path d="M96.7 452.5Q88.1 474.5 81.3 499.4" stroke="#ffb25d" stroke-width=".8" stroke-linecap="round" opacity="0.58" /><circle cx="81.3" cy="499.4" r="1" fill="#ffb25d" opacity=".8" /><path d="M91.8 455.1Q77.4 480.1 66.0 509.0" stroke="#ffb25d" stroke-width=".8" stroke-linecap="round" opacity="0.57" /><circle cx="66.0" cy="509.0" r="1" fill="#ffb25d" opacity=".8" /><path d="M91.8 449.3Q77.3 467.4 65.9 489.1" stroke="#ffb25d" stroke-width=".8" stroke-linecap="round" opacity="0.60" /><circle cx="65.9" cy="489.1" r="1" fill="#ffb25d" opacity=".8" /><path d="M87.0 449.8Q66.9 468.5 50.9 491.9" stroke="#ffb25d" stroke-width=".8" stroke-linecap="round" opacity="0.60" /><circle cx="50.9" cy="491.9" r="1" fill="#ffb25d" opacity=".8" /><path d="M83.8 447.8Q59.8 464.1 40.8 486.2" stroke="#ffb25d" stroke-width=".8" stroke-linecap="round" opacity="0.72" /><circle cx="40.8" cy="486.2" r="1" fill="#ffb25d" opacity=".8" /><path d="M85.8 442.8Q64.2 453.2 47.1 469.0" stroke="#ffb25d" stroke-width=".8" stroke-linecap="round" opacity="0.62" /><circle cx="47.1" cy="469.0" r="1" fill="#ffb25d" opacity=".8" /><path d="M80.1 441.4Q51.6 450.1 29.2 466.5" stroke="#ffb25d" stroke-width=".8" stroke-linecap="round" opacity="0.62" /><circle cx="29.2" cy="466.5" r="1" fill="#ffb25d" opacity=".8" /><path d="M82.7 437.2Q57.5 441.0 37.5 452.1" stroke="#ffb25d" stroke-width=".8" stroke-linecap="round" opacity="0.52" /><circle cx="37.5" cy="452.1" r="1" fill="#ffb25d" opacity=".8" /><path d="M78.5 434.0Q48.2 434.0 24.3 443.6" stroke="#ffb25d" stroke-width=".8" stroke-linecap="round" opacity="0.39" /><circle cx="24.3" cy="443.6" r="1" fill="#ffb25d" opacity=".8" /><path d="M83.8 430.9Q59.7 427.3 40.7 432.1" stroke="#ffb25d" stroke-width=".8" stroke-linecap="round" opacity="0.40" /><circle cx="40.7" cy="432.1" r="1" fill="#ffb25d" opacity=".8" /><path d="M84.6 428.0Q61.6 420.9 43.5 422.9" stroke="#ffb25d" stroke-width=".8" stroke-linecap="round" opacity="0.38" /><circle cx="43.5" cy="422.9" r="1" fill="#ffb25d" opacity=".8" /><path d="M80.7 422.8Q53.1 409.5 31.3 408.7" stroke="#ffb25d" stroke-width=".8" stroke-linecap="round" opacity="0.69" /><circle cx="31.3" cy="408.7" r="1" fill="#ffb25d" opacity=".8" /><path d="M86.6 422.1Q65.9 408.0 49.6 404.8" stroke="#ffb25d" stroke-width=".8" stroke-linecap="round" opacity="0.62" /><circle cx="49.6" cy="404.8" r="1" fill="#ffb25d" opacity=".8" /><path d="M87.7 418.9Q68.4 401.0 53.2 395.1" stroke="#ffb25d" stroke-width=".8" stroke-linecap="round" opacity="0.61" /><circle cx="53.2" cy="395.1" r="1" fill="#ffb25d" opacity=".8" /><path d="M92.3 419.3Q78.4 401.9 67.4 395.2" stroke="#ffb25d" stroke-width=".8" stroke-linecap="round" opacity="0.44" /><circle cx="67.4" cy="395.2" r="1" fill="#ffb25d" opacity=".8" /><path d="M91.2 411.8Q76.0 385.5 64.0 374.3" stroke="#ffb25d" stroke-width=".8" stroke-linecap="round" opacity="0.58" /><circle cx="64.0" cy="374.3" r="1" fill="#ffb25d" opacity=".8" /><path d="M97.2 416.7Q89.2 396.2 82.8 386.9" stroke="#ffb25d" stroke-width=".8" stroke-linecap="round" opacity="0.59" /><circle cx="82.8" cy="386.9" r="1" fill="#ffb25d" opacity=".8" /><path d="M98.8 411.4Q92.7 384.5 87.8 371.9" stroke="#ffb25d" stroke-width=".8" stroke-linecap="round" opacity="0.71" /><circle cx="87.8" cy="371.9" r="1" fill="#ffb25d" opacity=".8" /><path d="M102.4 413.2Q100.6 388.6 99.1 376.9" stroke="#ffb25d" stroke-width=".8" stroke-linecap="round" opacity="0.74" /><circle cx="99.1" cy="376.9" r="1" fill="#ffb25d" opacity=".8" /><path d="M105.8 410.0Q107.9 381.4 109.6 367.9" stroke="#ffb25d" stroke-width=".8" stroke-linecap="round" opacity="0.58" /><circle cx="109.6" cy="367.9" r="1" fill="#ffb25d" opacity=".8" /><path d="M109.4 410.2Q115.9 382.0 121.0 368.9" stroke="#ffb25d" stroke-width=".8" stroke-linecap="round" opacity="0.34" /><circle cx="121.0" cy="368.9" r="1" fill="#ffb25d" opacity=".8" /><path d="M111.9 413.8Q121.3 389.9 128.7 379.1" stroke="#ffb25d" stroke-width=".8" stroke-linecap="round" opacity="0.71" /><circle cx="128.7" cy="379.1" r="1" fill="#ffb25d" opacity=".8" /><path d="M116.1 413.0Q130.6 388.0 141.9 377.4" stroke="#ffb25d" stroke-width=".8" stroke-linecap="round" opacity="0.56" /><circle cx="141.9" cy="377.4" r="1" fill="#ffb25d" opacity=".8" /><path d="M116.4 418.4Q131.2 399.9 142.8 392.8" stroke="#ffb25d" stroke-width=".8" stroke-linecap="round" opacity="0.37" /><circle cx="142.8" cy="392.8" r="1" fill="#ffb25d" opacity=".8" /><path d="M119.2 419.9Q137.2 403.2 151.4 397.8" stroke="#ffb25d" stroke-width=".8" stroke-linecap="round" opacity="0.42" /><circle cx="151.4" cy="397.8" r="1" fill="#ffb25d" opacity=".8" /><path d="M120.3 422.9Q139.7 409.7 155.0 406.6" stroke="#ffb25d" stroke-width=".8" stroke-linecap="round" opacity="0.38" /><circle cx="155.0" cy="406.6" r="1" fill="#ffb25d" opacity=".8" /><path d="M123.9 424.4Q147.5 413.1 166.1 412.4" stroke="#ffb25d" stroke-width=".8" stroke-linecap="round" opacity="0.54" /><circle cx="166.1" cy="412.4" r="1" fill="#ffb25d" opacity=".8" /><path d="M127.5 426.8Q155.4 418.2 177.4 420.6" stroke="#ffb25d" stroke-width=".8" stroke-linecap="round" opacity="0.70" /><circle cx="177.4" cy="420.6" r="1" fill="#ffb25d" opacity=".8" /><path d="M124.4 430.9Q148.5 427.3 167.6 432.1" stroke="#ffb25d" stroke-width=".8" stroke-linecap="round" opacity="0.67" /><circle cx="167.6" cy="432.1" r="1" fill="#ffb25d" opacity=".8" /><path d="M93 589Q101 543 104 456" stroke="#ffb25d" stroke-dasharray="1 5" opacity=".22" /></g><path d="M255.4 488.0Q266.6 488.0 275.4 491.5" stroke="#ff884f" stroke-width=".8" stroke-linecap="round" opacity="0.45" /><circle cx="275.4" cy="491.5" r="1" fill="#ff884f" opacity=".8" /><path d="M258.2 491.1Q272.7 494.8 284.1 502.5" stroke="#7bbdff" stroke-width=".8" stroke-linecap="round" opacity="0.62" /><circle cx="284.1" cy="502.5" r="1" fill="#7bbdff" opacity=".8" /><path d="M256.1 493.6Q268.2 500.2 277.7 509.8" stroke="#d3a1ed" stroke-width=".8" stroke-linecap="round" opacity="0.37" /><circle cx="277.7" cy="509.8" r="1" fill="#d3a1ed" opacity=".8" /><path d="M254.4 495.9Q264.3 505.2 272.2 516.9" stroke="#ffdb82" stroke-width=".8" stroke-linecap="round" opacity="0.75" /><circle cx="272.2" cy="516.9" r="1" fill="#ffdb82" opacity=".8" /><path d="M252.2 497.8Q259.6 509.5 265.5 523.1" stroke="#ff884f" stroke-width=".8" stroke-linecap="round" opacity="0.49" /><circle cx="265.5" cy="523.1" r="1" fill="#ff884f" opacity=".8" /><path d="M249.9 499.9Q254.5 514.0 258.1 529.9" stroke="#7bbdff" stroke-width=".8" stroke-linecap="round" opacity="0.44" /><circle cx="258.1" cy="529.9" r="1" fill="#7bbdff" opacity=".8" /><path d="M246.6 498.3Q247.4 510.6 248.0 524.1" stroke="#d3a1ed" stroke-width=".8" stroke-linecap="round" opacity="0.46" /><circle cx="248.0" cy="524.1" r="1" fill="#d3a1ed" opacity=".8" /><path d="M243.7 500.0Q241.0 514.4 238.8 530.3" stroke="#ffdb82" stroke-width=".8" stroke-linecap="round" opacity="0.63" /><circle cx="238.8" cy="530.3" r="1" fill="#ffdb82" opacity=".8" /><path d="M241.9 496.7Q237.1 506.9 233.3 518.7" stroke="#ff884f" stroke-width=".8" stroke-linecap="round" opacity="0.36" /><circle cx="233.3" cy="518.7" r="1" fill="#ff884f" opacity=".8" /><path d="M239.2 496.2Q231.1 506.0 224.7 517.7" stroke="#7bbdff" stroke-width=".8" stroke-linecap="round" opacity="0.60" /><circle cx="224.7" cy="517.7" r="1" fill="#7bbdff" opacity=".8" /><path d="M237.9 493.9Q228.2 500.9 220.6 510.2" stroke="#d3a1ed" stroke-width=".8" stroke-linecap="round" opacity="0.55" /><circle cx="220.6" cy="510.2" r="1" fill="#d3a1ed" opacity=".8" /><path d="M237.4 491.4Q227.1 495.5 219.0 502.2" stroke="#ffdb82" stroke-width=".8" stroke-linecap="round" opacity="0.51" /><circle cx="219.0" cy="502.2" r="1" fill="#ffdb82" opacity=".8" /><path d="M236.4 489.2Q224.9 490.7 215.9 495.5" stroke="#ff884f" stroke-width=".8" stroke-linecap="round" opacity="0.59" /><circle cx="215.9" cy="495.5" r="1" fill="#ff884f" opacity=".8" /><path d="M233.7 486.4Q219.0 484.6 207.4 487.8" stroke="#7bbdff" stroke-width=".8" stroke-linecap="round" opacity="0.66" /><circle cx="207.4" cy="487.8" r="1" fill="#7bbdff" opacity=".8" /><path d="M235.3 483.8Q222.7 478.8 212.7 479.1" stroke="#d3a1ed" stroke-width=".8" stroke-linecap="round" opacity="0.71" /><circle cx="212.7" cy="479.1" r="1" fill="#d3a1ed" opacity=".8" /><path d="M238.1 482.3Q228.8 475.5 221.4 473.8" stroke="#ffdb82" stroke-width=".8" stroke-linecap="round" opacity="0.37" /><circle cx="221.4" cy="473.8" r="1" fill="#ffdb82" opacity=".8" /><path d="M238.8 479.3Q230.3 469.0 223.6 465.1" stroke="#ff884f" stroke-width=".8" stroke-linecap="round" opacity="0.51" /><circle cx="223.6" cy="465.1" r="1" fill="#ff884f" opacity=".8" /><path d="M242.0 479.4Q237.2 469.2 233.4 464.7" stroke="#7bbdff" stroke-width=".8" stroke-linecap="round" opacity="0.53" /><circle cx="233.4" cy="464.7" r="1" fill="#7bbdff" opacity=".8" /><path d="M244.1 477.9Q241.8 465.9 240.0 460.2" stroke="#d3a1ed" stroke-width=".8" stroke-linecap="round" opacity="0.62" /><circle cx="240.0" cy="460.2" r="1" fill="#d3a1ed" opacity=".8" /><path d="M246.6 478.1Q247.4 466.4 247.9 460.9" stroke="#ffdb82" stroke-width=".8" stroke-linecap="round" opacity="0.35" /><circle cx="247.9" cy="460.9" r="1" fill="#ffdb82" opacity=".8" /><path d="M249.6 477.0Q253.8 463.9 257.2 458.0" stroke="#ff884f" stroke-width=".8" stroke-linecap="round" opacity="0.74" /><circle cx="257.2" cy="458.0" r="1" fill="#ff884f" opacity=".8" /><path d="M251.6 479.1Q258.3 468.6 263.6 464.3" stroke="#7bbdff" stroke-width=".8" stroke-linecap="round" opacity="0.71" /><circle cx="263.6" cy="464.3" r="1" fill="#7bbdff" opacity=".8" /><path d="M255.2 479.4Q266.0 469.2 274.6 465.8" stroke="#d3a1ed" stroke-width=".8" stroke-linecap="round" opacity="0.46" /><circle cx="274.6" cy="465.8" r="1" fill="#d3a1ed" opacity=".8" /><path d="M256.3 482.3Q268.6 475.6 278.3 474.7" stroke="#ffdb82" stroke-width=".8" stroke-linecap="round" opacity="0.54" /><circle cx="278.3" cy="474.7" r="1" fill="#ffdb82" opacity=".8" /><path d="M255.8 485.5Q267.5 482.5 276.8 483.9" stroke="#ff884f" stroke-width=".8" stroke-linecap="round" opacity="0.42" /><circle cx="276.8" cy="483.9" r="1" fill="#ff884f" opacity=".8" /><path d="M235 604Q243 558 246 510" stroke="#efaf72" stroke-dasharray="1 5" opacity=".22" /></svg>